<?xml version="1.0" encoding="utf-8" standalone="no"?>
<!DOCTYPE svg PUBLIC "-//W3C//DTD SVG 1.1//EN"
  "http://www.w3.org/Graphics/SVG/1.1/DTD/svg11.dtd">
<svg xmlns:xlink="http://www.w3.org/1999/xlink" width="432pt" height="288pt" viewBox="0 0 432 288" xmlns="http://www.w3.org/2000/svg" version="1.1">
 <metadata>
  <rdf:RDF xmlns:dc="http://purl.org/dc/elements/1.1/" xmlns:cc="http://creativecommons.org/ns#" xmlns:rdf="http://www.w3.org/1999/02/22-rdf-syntax-ns#">
   <cc:Work>
    <dc:type rdf:resource="http://purl.org/dc/dcmitype/StillImage"/>
    <dc:date>2026-01-26T14:59:47.965037</dc:date>
    <dc:format>image/svg+xml</dc:format>
    <dc:creator>
     <cc:Agent>
      <dc:title>Matplotlib v3.9.0, https://matplotlib.org/</dc:title>
     </cc:Agent>
    </dc:creator>
   </cc:Work>
  </rdf:RDF>
 </metadata>
 <defs>
  <style type="text/css">*{stroke-linejoin: round; stroke-linecap: butt}</style>
 </defs>
 <g id="figure_1">
  <g id="patch_1">
   <path d="M 0 288 
L 432 288 
L 432 0 
L 0 0 
z
" style="fill: #ffffff"/>
  </g>
  <g id="axes_1">
   <g id="patch_2">
    <path d="M 53.75 243.16 
L 421.2 243.16 
L 421.2 10.8 
L 53.75 10.8 
z
" style="fill: #ffffff"/>
   </g>
   <g id="patch_3">
    <path d="M 70.452273 243.16 
L 77.133182 243.16 
L 77.133182 242.285315 
L 70.452273 242.285315 
z
" clip-path="url(#p2fced6aa8e)" style="fill: #179c4c; opacity: 0.8; stroke: #000000; stroke-width: 0.5; stroke-linejoin: miter"/>
   </g>
   <g id="patch_4">
    <path d="M 77.133182 243.16 
L 83.814091 243.16 
L 83.814091 241.702192 
L 77.133182 241.702192 
z
" clip-path="url(#p2fced6aa8e)" style="fill: #179c4c; opacity: 0.8; stroke: #000000; stroke-width: 0.5; stroke-linejoin: miter"/>
   </g>
   <g id="patch_5">
    <path d="M 83.814091 243.16 
L 90.495 243.16 
L 90.495 236.745645 
L 83.814091 236.745645 
z
" clip-path="url(#p2fced6aa8e)" style="fill: #179c4c; opacity: 0.8; stroke: #000000; stroke-width: 0.5; stroke-linejoin: miter"/>
   </g>
   <g id="patch_6">
    <path d="M 90.495 243.16 
L 97.175909 243.16 
L 97.175909 237.037207 
L 90.495 237.037207 
z
" clip-path="url(#p2fced6aa8e)" style="fill: #179c4c; opacity: 0.8; stroke: #000000; stroke-width: 0.5; stroke-linejoin: miter"/>
   </g>
   <g id="patch_7">
    <path d="M 97.175909 243.16 
L 103.856818 243.16 
L 103.856818 214.003842 
L 97.175909 214.003842 
z
" clip-path="url(#p2fced6aa8e)" style="fill: #179c4c; opacity: 0.8; stroke: #000000; stroke-width: 0.5; stroke-linejoin: miter"/>
   </g>
   <g id="patch_8">
    <path d="M 103.856818 243.16 
L 110.537727 243.16 
L 110.537727 226.832552 
L 103.856818 226.832552 
z
" clip-path="url(#p2fced6aa8e)" style="fill: #179c4c; opacity: 0.8; stroke: #000000; stroke-width: 0.5; stroke-linejoin: miter"/>
   </g>
   <g id="patch_9">
    <path d="M 110.537727 243.16 
L 117.218636 243.16 
L 117.218636 233.830029 
L 110.537727 233.830029 
z
" clip-path="url(#p2fced6aa8e)" style="fill: #179c4c; opacity: 0.8; stroke: #000000; stroke-width: 0.5; stroke-linejoin: miter"/>
   </g>
   <g id="patch_10">
    <path d="M 117.218636 243.16 
L 123.899545 243.16 
L 123.899545 209.338857 
L 117.218636 209.338857 
z
" clip-path="url(#p2fced6aa8e)" style="fill: #179c4c; opacity: 0.8; stroke: #000000; stroke-width: 0.5; stroke-linejoin: miter"/>
   </g>
   <g id="patch_11">
    <path d="M 123.899545 243.16 
L 130.580455 243.16 
L 130.580455 227.998798 
L 123.899545 227.998798 
z
" clip-path="url(#p2fced6aa8e)" style="fill: #179c4c; opacity: 0.8; stroke: #000000; stroke-width: 0.5; stroke-linejoin: miter"/>
   </g>
   <g id="patch_12">
    <path d="M 130.580455 243.16 
L 137.261364 243.16 
L 137.261364 225.957867 
L 130.580455 225.957867 
z
" clip-path="url(#p2fced6aa8e)" style="fill: #179c4c; opacity: 0.8; stroke: #000000; stroke-width: 0.5; stroke-linejoin: miter"/>
   </g>
   <g id="patch_13">
    <path d="M 137.261364 243.16 
L 143.942273 243.16 
L 143.942273 21.864762 
L 137.261364 21.864762 
z
" clip-path="url(#p2fced6aa8e)" style="fill: #179c4c; opacity: 0.8; stroke: #000000; stroke-width: 0.5; stroke-linejoin: miter"/>
   </g>
   <g id="patch_14">
    <path d="M 143.942273 243.16 
L 150.623182 243.16 
L 150.623182 208.172611 
L 143.942273 208.172611 
z
" clip-path="url(#p2fced6aa8e)" style="fill: #179c4c; opacity: 0.8; stroke: #000000; stroke-width: 0.5; stroke-linejoin: miter"/>
   </g>
   <g id="patch_15">
    <path d="M 150.623182 243.16 
L 157.304091 243.16 
L 157.304091 214.295404 
L 150.623182 214.295404 
z
" clip-path="url(#p2fced6aa8e)" style="fill: #179c4c; opacity: 0.8; stroke: #000000; stroke-width: 0.5; stroke-linejoin: miter"/>
   </g>
   <g id="patch_16">
    <path d="M 157.304091 243.16 
L 163.985 243.16 
L 163.985 194.177655 
L 157.304091 194.177655 
z
" clip-path="url(#p2fced6aa8e)" style="fill: #179c4c; opacity: 0.8; stroke: #000000; stroke-width: 0.5; stroke-linejoin: miter"/>
   </g>
   <g id="patch_17">
    <path d="M 163.985 243.16 
L 170.665909 243.16 
L 170.665909 225.083182 
L 163.985 225.083182 
z
" clip-path="url(#p2fced6aa8e)" style="fill: #179c4c; opacity: 0.8; stroke: #000000; stroke-width: 0.5; stroke-linejoin: miter"/>
   </g>
   <g id="patch_18">
    <path d="M 170.665909 243.16 
L 177.346818 243.16 
L 177.346818 108.458551 
L 170.665909 108.458551 
z
" clip-path="url(#p2fced6aa8e)" style="fill: #179c4c; opacity: 0.8; stroke: #000000; stroke-width: 0.5; stroke-linejoin: miter"/>
   </g>
   <g id="patch_19">
    <path d="M 177.346818 243.16 
L 184.027727 243.16 
L 184.027727 228.873483 
L 177.346818 228.873483 
z
" clip-path="url(#p2fced6aa8e)" style="fill: #179c4c; opacity: 0.8; stroke: #000000; stroke-width: 0.5; stroke-linejoin: miter"/>
   </g>
   <g id="patch_20">
    <path d="M 184.027727 243.16 
L 190.708636 243.16 
L 190.708636 234.413153 
L 184.027727 234.413153 
z
" clip-path="url(#p2fced6aa8e)" style="fill: #179c4c; opacity: 0.8; stroke: #000000; stroke-width: 0.5; stroke-linejoin: miter"/>
   </g>
   <g id="patch_21">
    <path d="M 190.708636 243.16 
L 197.389545 243.16 
L 197.389545 239.661261 
L 190.708636 239.661261 
z
" clip-path="url(#p2fced6aa8e)" style="fill: #179c4c; opacity: 0.8; stroke: #000000; stroke-width: 0.5; stroke-linejoin: miter"/>
   </g>
   <g id="patch_22">
    <path d="M 197.389545 243.16 
L 204.070455 243.16 
L 204.070455 234.704714 
L 197.389545 234.704714 
z
" clip-path="url(#p2fced6aa8e)" style="fill: #179c4c; opacity: 0.8; stroke: #000000; stroke-width: 0.5; stroke-linejoin: miter"/>
   </g>
   <g id="patch_23">
    <path d="M 204.070455 243.16 
L 210.751364 243.16 
L 210.751364 238.495015 
L 204.070455 238.495015 
z
" clip-path="url(#p2fced6aa8e)" style="fill: #179c4c; opacity: 0.8; stroke: #000000; stroke-width: 0.5; stroke-linejoin: miter"/>
   </g>
   <g id="patch_24">
    <path d="M 210.751364 243.16 
L 217.432273 243.16 
L 217.432273 240.535946 
L 210.751364 240.535946 
z
" clip-path="url(#p2fced6aa8e)" style="fill: #179c4c; opacity: 0.8; stroke: #000000; stroke-width: 0.5; stroke-linejoin: miter"/>
   </g>
   <g id="patch_25">
    <path d="M 217.432273 243.16 
L 224.113182 243.16 
L 224.113182 241.410631 
L 217.432273 241.410631 
z
" clip-path="url(#p2fced6aa8e)" style="fill: #179c4c; opacity: 0.8; stroke: #000000; stroke-width: 0.5; stroke-linejoin: miter"/>
   </g>
   <g id="patch_26">
    <path d="M 224.113182 243.16 
L 230.794091 243.16 
L 230.794091 241.119069 
L 224.113182 241.119069 
z
" clip-path="url(#p2fced6aa8e)" style="fill: #179c4c; opacity: 0.8; stroke: #000000; stroke-width: 0.5; stroke-linejoin: miter"/>
   </g>
   <g id="patch_27">
    <path d="M 230.794091 243.16 
L 237.475 243.16 
L 237.475 241.410631 
L 230.794091 241.410631 
z
" clip-path="url(#p2fced6aa8e)" style="fill: #179c4c; opacity: 0.8; stroke: #000000; stroke-width: 0.5; stroke-linejoin: miter"/>
   </g>
   <g id="patch_28">
    <path d="M 237.475 243.16 
L 244.155909 243.16 
L 244.155909 239.661261 
L 237.475 239.661261 
z
" clip-path="url(#p2fced6aa8e)" style="fill: #179c4c; opacity: 0.8; stroke: #000000; stroke-width: 0.5; stroke-linejoin: miter"/>
   </g>
   <g id="patch_29">
    <path d="M 244.155909 243.16 
L 250.836818 243.16 
L 250.836818 239.952823 
L 244.155909 239.952823 
z
" clip-path="url(#p2fced6aa8e)" style="fill: #179c4c; opacity: 0.8; stroke: #000000; stroke-width: 0.5; stroke-linejoin: miter"/>
   </g>
   <g id="patch_30">
    <path d="M 250.836818 243.16 
L 257.517727 243.16 
L 257.517727 239.369699 
L 250.836818 239.369699 
z
" clip-path="url(#p2fced6aa8e)" style="fill: #179c4c; opacity: 0.8; stroke: #000000; stroke-width: 0.5; stroke-linejoin: miter"/>
   </g>
   <g id="patch_31">
    <path d="M 257.517727 243.16 
L 264.198636 243.16 
L 264.198636 240.827507 
L 257.517727 240.827507 
z
" clip-path="url(#p2fced6aa8e)" style="fill: #179c4c; opacity: 0.8; stroke: #000000; stroke-width: 0.5; stroke-linejoin: miter"/>
   </g>
   <g id="patch_32">
    <path d="M 264.198636 243.16 
L 270.879545 243.16 
L 270.879545 242.285315 
L 264.198636 242.285315 
z
" clip-path="url(#p2fced6aa8e)" style="fill: #179c4c; opacity: 0.8; stroke: #000000; stroke-width: 0.5; stroke-linejoin: miter"/>
   </g>
   <g id="patch_33">
    <path d="M 270.879545 243.16 
L 277.560455 243.16 
L 277.560455 242.576877 
L 270.879545 242.576877 
z
" clip-path="url(#p2fced6aa8e)" style="fill: #179c4c; opacity: 0.8; stroke: #000000; stroke-width: 0.5; stroke-linejoin: miter"/>
   </g>
   <g id="patch_34">
    <path d="M 277.560455 243.16 
L 284.241364 243.16 
L 284.241364 241.993754 
L 277.560455 241.993754 
z
" clip-path="url(#p2fced6aa8e)" style="fill: #179c4c; opacity: 0.8; stroke: #000000; stroke-width: 0.5; stroke-linejoin: miter"/>
   </g>
   <g id="patch_35">
    <path d="M 284.241364 243.16 
L 290.922273 243.16 
L 290.922273 241.702192 
L 284.241364 241.702192 
z
" clip-path="url(#p2fced6aa8e)" style="fill: #179c4c; opacity: 0.8; stroke: #000000; stroke-width: 0.5; stroke-linejoin: miter"/>
   </g>
   <g id="patch_36">
    <path d="M 290.922273 243.16 
L 297.603182 243.16 
L 297.603182 243.16 
L 290.922273 243.16 
z
" clip-path="url(#p2fced6aa8e)" style="fill: #179c4c; opacity: 0.8; stroke: #000000; stroke-width: 0.5; stroke-linejoin: miter"/>
   </g>
   <g id="patch_37">
    <path d="M 297.603182 243.16 
L 304.284091 243.16 
L 304.284091 242.576877 
L 297.603182 242.576877 
z
" clip-path="url(#p2fced6aa8e)" style="fill: #179c4c; opacity: 0.8; stroke: #000000; stroke-width: 0.5; stroke-linejoin: miter"/>
   </g>
   <g id="patch_38">
    <path d="M 304.284091 243.16 
L 310.965 243.16 
L 310.965 242.868438 
L 304.284091 242.868438 
z
" clip-path="url(#p2fced6aa8e)" style="fill: #179c4c; opacity: 0.8; stroke: #000000; stroke-width: 0.5; stroke-linejoin: miter"/>
   </g>
   <g id="patch_39">
    <path d="M 310.965 243.16 
L 317.645909 243.16 
L 317.645909 242.576877 
L 310.965 242.576877 
z
" clip-path="url(#p2fced6aa8e)" style="fill: #179c4c; opacity: 0.8; stroke: #000000; stroke-width: 0.5; stroke-linejoin: miter"/>
   </g>
   <g id="patch_40">
    <path d="M 317.645909 243.16 
L 324.326818 243.16 
L 324.326818 242.576877 
L 317.645909 242.576877 
z
" clip-path="url(#p2fced6aa8e)" style="fill: #179c4c; opacity: 0.8; stroke: #000000; stroke-width: 0.5; stroke-linejoin: miter"/>
   </g>
   <g id="patch_41">
    <path d="M 324.326818 243.16 
L 331.007727 243.16 
L 331.007727 242.576877 
L 324.326818 242.576877 
z
" clip-path="url(#p2fced6aa8e)" style="fill: #179c4c; opacity: 0.8; stroke: #000000; stroke-width: 0.5; stroke-linejoin: miter"/>
   </g>
   <g id="patch_42">
    <path d="M 331.007727 243.16 
L 337.688636 243.16 
L 337.688636 242.576877 
L 331.007727 242.576877 
z
" clip-path="url(#p2fced6aa8e)" style="fill: #179c4c; opacity: 0.8; stroke: #000000; stroke-width: 0.5; stroke-linejoin: miter"/>
   </g>
   <g id="patch_43">
    <path d="M 337.688636 243.16 
L 344.369545 243.16 
L 344.369545 242.285315 
L 337.688636 242.285315 
z
" clip-path="url(#p2fced6aa8e)" style="fill: #179c4c; opacity: 0.8; stroke: #000000; stroke-width: 0.5; stroke-linejoin: miter"/>
   </g>
   <g id="patch_44">
    <path d="M 344.369545 243.16 
L 351.050455 243.16 
L 351.050455 243.16 
L 344.369545 243.16 
z
" clip-path="url(#p2fced6aa8e)" style="fill: #179c4c; opacity: 0.8; stroke: #000000; stroke-width: 0.5; stroke-linejoin: miter"/>
   </g>
   <g id="patch_45">
    <path d="M 351.050455 243.16 
L 357.731364 243.16 
L 357.731364 243.16 
L 351.050455 243.16 
z
" clip-path="url(#p2fced6aa8e)" style="fill: #179c4c; opacity: 0.8; stroke: #000000; stroke-width: 0.5; stroke-linejoin: miter"/>
   </g>
   <g id="patch_46">
    <path d="M 357.731364 243.16 
L 364.412273 243.16 
L 364.412273 243.16 
L 357.731364 243.16 
z
" clip-path="url(#p2fced6aa8e)" style="fill: #179c4c; opacity: 0.8; stroke: #000000; stroke-width: 0.5; stroke-linejoin: miter"/>
   </g>
   <g id="patch_47">
    <path d="M 364.412273 243.16 
L 371.093182 243.16 
L 371.093182 243.16 
L 364.412273 243.16 
z
" clip-path="url(#p2fced6aa8e)" style="fill: #179c4c; opacity: 0.8; stroke: #000000; stroke-width: 0.5; stroke-linejoin: miter"/>
   </g>
   <g id="patch_48">
    <path d="M 371.093182 243.16 
L 377.774091 243.16 
L 377.774091 243.16 
L 371.093182 243.16 
z
" clip-path="url(#p2fced6aa8e)" style="fill: #179c4c; opacity: 0.8; stroke: #000000; stroke-width: 0.5; stroke-linejoin: miter"/>
   </g>
   <g id="patch_49">
    <path d="M 377.774091 243.16 
L 384.455 243.16 
L 384.455 243.16 
L 377.774091 243.16 
z
" clip-path="url(#p2fced6aa8e)" style="fill: #179c4c; opacity: 0.8; stroke: #000000; stroke-width: 0.5; stroke-linejoin: miter"/>
   </g>
   <g id="patch_50">
    <path d="M 384.455 243.16 
L 391.135909 243.16 
L 391.135909 243.16 
L 384.455 243.16 
z
" clip-path="url(#p2fced6aa8e)" style="fill: #179c4c; opacity: 0.8; stroke: #000000; stroke-width: 0.5; stroke-linejoin: miter"/>
   </g>
   <g id="patch_51">
    <path d="M 391.135909 243.16 
L 397.816818 243.16 
L 397.816818 243.16 
L 391.135909 243.16 
z
" clip-path="url(#p2fced6aa8e)" style="fill: #179c4c; opacity: 0.8; stroke: #000000; stroke-width: 0.5; stroke-linejoin: miter"/>
   </g>
   <g id="patch_52">
    <path d="M 397.816818 243.16 
L 404.497727 243.16 
L 404.497727 242.868438 
L 397.816818 242.868438 
z
" clip-path="url(#p2fced6aa8e)" style="fill: #179c4c; opacity: 0.8; stroke: #000000; stroke-width: 0.5; stroke-linejoin: miter"/>
   </g>
   <g id="matplotlib.axis_1">
    <g id="xtick_1">
     <g id="line2d_1">
      <defs>
       <path id="m3dcfd9be66" d="M 0 0 
L 0 3.5 
" style="stroke: #000000; stroke-width: 0.8"/>
      </defs>
      <g>
       <use xlink:href="#m3dcfd9be66" x="103.856818" y="243.16" style="stroke: #000000; stroke-width: 0.8"/>
      </g>
     </g>
     <g id="text_1">
      <!-- 10 -->
      <g transform="translate(97.494318 257.758438) scale(0.1 -0.1)">
       <defs>
        <path id="DejaVuSans-31" d="M 794 531 
L 1825 531 
L 1825 4091 
L 703 3866 
L 703 4441 
L 1819 4666 
L 2450 4666 
L 2450 531 
L 3481 531 
L 3481 0 
L 794 0 
L 794 531 
z
" transform="scale(0.015625)"/>
        <path id="DejaVuSans-30" d="M 2034 4250 
Q 1547 4250 1301 3770 
Q 1056 3291 1056 2328 
Q 1056 1369 1301 889 
Q 1547 409 2034 409 
Q 2525 409 2770 889 
Q 3016 1369 3016 2328 
Q 3016 3291 2770 3770 
Q 2525 4250 2034 4250 
z
M 2034 4750 
Q 2819 4750 3233 4129 
Q 3647 3509 3647 2328 
Q 3647 1150 3233 529 
Q 2819 -91 2034 -91 
Q 1250 -91 836 529 
Q 422 1150 422 2328 
Q 422 3509 836 4129 
Q 1250 4750 2034 4750 
z
" transform="scale(0.015625)"/>
       </defs>
       <use xlink:href="#DejaVuSans-31"/>
       <use xlink:href="#DejaVuSans-30" x="63.623047"/>
      </g>
     </g>
    </g>
    <g id="xtick_2">
     <g id="line2d_2">
      <g>
       <use xlink:href="#m3dcfd9be66" x="170.665909" y="243.16" style="stroke: #000000; stroke-width: 0.8"/>
      </g>
     </g>
     <g id="text_2">
      <!-- 20 -->
      <g transform="translate(164.303409 257.758438) scale(0.1 -0.1)">
       <defs>
        <path id="DejaVuSans-32" d="M 1228 531 
L 3431 531 
L 3431 0 
L 469 0 
L 469 531 
Q 828 903 1448 1529 
Q 2069 2156 2228 2338 
Q 2531 2678 2651 2914 
Q 2772 3150 2772 3378 
Q 2772 3750 2511 3984 
Q 2250 4219 1831 4219 
Q 1534 4219 1204 4116 
Q 875 4013 500 3803 
L 500 4441 
Q 881 4594 1212 4672 
Q 1544 4750 1819 4750 
Q 2544 4750 2975 4387 
Q 3406 4025 3406 3419 
Q 3406 3131 3298 2873 
Q 3191 2616 2906 2266 
Q 2828 2175 2409 1742 
Q 1991 1309 1228 531 
z
" transform="scale(0.015625)"/>
       </defs>
       <use xlink:href="#DejaVuSans-32"/>
       <use xlink:href="#DejaVuSans-30" x="63.623047"/>
      </g>
     </g>
    </g>
    <g id="xtick_3">
     <g id="line2d_3">
      <g>
       <use xlink:href="#m3dcfd9be66" x="237.475" y="243.16" style="stroke: #000000; stroke-width: 0.8"/>
      </g>
     </g>
     <g id="text_3">
      <!-- 30 -->
      <g transform="translate(231.1125 257.758438) scale(0.1 -0.1)">
       <defs>
        <path id="DejaVuSans-33" d="M 2597 2516 
Q 3050 2419 3304 2112 
Q 3559 1806 3559 1356 
Q 3559 666 3084 287 
Q 2609 -91 1734 -91 
Q 1441 -91 1130 -33 
Q 819 25 488 141 
L 488 750 
Q 750 597 1062 519 
Q 1375 441 1716 441 
Q 2309 441 2620 675 
Q 2931 909 2931 1356 
Q 2931 1769 2642 2001 
Q 2353 2234 1838 2234 
L 1294 2234 
L 1294 2753 
L 1863 2753 
Q 2328 2753 2575 2939 
Q 2822 3125 2822 3475 
Q 2822 3834 2567 4026 
Q 2313 4219 1838 4219 
Q 1578 4219 1281 4162 
Q 984 4106 628 3988 
L 628 4550 
Q 988 4650 1302 4700 
Q 1616 4750 1894 4750 
Q 2613 4750 3031 4423 
Q 3450 4097 3450 3541 
Q 3450 3153 3228 2886 
Q 3006 2619 2597 2516 
z
" transform="scale(0.015625)"/>
       </defs>
       <use xlink:href="#DejaVuSans-33"/>
       <use xlink:href="#DejaVuSans-30" x="63.623047"/>
      </g>
     </g>
    </g>
    <g id="xtick_4">
     <g id="line2d_4">
      <g>
       <use xlink:href="#m3dcfd9be66" x="304.284091" y="243.16" style="stroke: #000000; stroke-width: 0.8"/>
      </g>
     </g>
     <g id="text_4">
      <!-- 40 -->
      <g transform="translate(297.921591 257.758438) scale(0.1 -0.1)">
       <defs>
        <path id="DejaVuSans-34" d="M 2419 4116 
L 825 1625 
L 2419 1625 
L 2419 4116 
z
M 2253 4666 
L 3047 4666 
L 3047 1625 
L 3713 1625 
L 3713 1100 
L 3047 1100 
L 3047 0 
L 2419 0 
L 2419 1100 
L 313 1100 
L 313 1709 
L 2253 4666 
z
" transform="scale(0.015625)"/>
       </defs>
       <use xlink:href="#DejaVuSans-34"/>
       <use xlink:href="#DejaVuSans-30" x="63.623047"/>
      </g>
     </g>
    </g>
    <g id="xtick_5">
     <g id="line2d_5">
      <g>
       <use xlink:href="#m3dcfd9be66" x="371.093182" y="243.16" style="stroke: #000000; stroke-width: 0.8"/>
      </g>
     </g>
     <g id="text_5">
      <!-- 50 -->
      <g transform="translate(364.730682 257.758438) scale(0.1 -0.1)">
       <defs>
        <path id="DejaVuSans-35" d="M 691 4666 
L 3169 4666 
L 3169 4134 
L 1269 4134 
L 1269 2991 
Q 1406 3038 1543 3061 
Q 1681 3084 1819 3084 
Q 2600 3084 3056 2656 
Q 3513 2228 3513 1497 
Q 3513 744 3044 326 
Q 2575 -91 1722 -91 
Q 1428 -91 1123 -41 
Q 819 9 494 109 
L 494 744 
Q 775 591 1075 516 
Q 1375 441 1709 441 
Q 2250 441 2565 725 
Q 2881 1009 2881 1497 
Q 2881 1984 2565 2268 
Q 2250 2553 1709 2553 
Q 1456 2553 1204 2497 
Q 953 2441 691 2322 
L 691 4666 
z
" transform="scale(0.015625)"/>
       </defs>
       <use xlink:href="#DejaVuSans-35"/>
       <use xlink:href="#DejaVuSans-30" x="63.623047"/>
      </g>
     </g>
    </g>
    <g id="text_6">
     <!-- Peptide length (aa) -->
     <g transform="translate(171.989688 272.95625) scale(0.12 -0.12)">
      <defs>
       <path id="DejaVuSans-BoldOblique-50" d="M 1044 4666 
L 3041 4666 
Q 3775 4666 4189 4330 
Q 4603 3994 4603 3397 
Q 4603 3031 4465 2701 
Q 4328 2372 4072 2125 
Q 3794 1859 3409 1739 
Q 3025 1619 2444 1619 
L 1650 1619 
L 1338 0 
L 134 0 
L 1044 4666 
z
M 2081 3794 
L 1825 2491 
L 2491 2491 
Q 2916 2491 3141 2691 
Q 3366 2891 3366 3272 
Q 3366 3525 3205 3659 
Q 3044 3794 2741 3794 
L 2081 3794 
z
" transform="scale(0.015625)"/>
       <path id="DejaVuSans-BoldOblique-65" d="M 4025 1619 
L 3988 1441 
L 1369 1441 
Q 1369 1422 1366 1386 
Q 1363 1350 1363 1331 
Q 1363 991 1567 822 
Q 1772 653 2181 653 
Q 2534 653 2926 759 
Q 3319 866 3750 1075 
L 3578 206 
Q 3169 56 2764 -17 
Q 2359 -91 1941 -91 
Q 1122 -91 676 287 
Q 231 666 231 1356 
Q 231 1756 373 2132 
Q 516 2509 788 2822 
Q 1109 3197 1557 3390 
Q 2006 3584 2553 3584 
Q 3263 3584 3680 3206 
Q 4097 2828 4097 2188 
Q 4097 2063 4080 1923 
Q 4063 1784 4025 1619 
z
M 2969 2131 
Q 2978 2172 2983 2214 
Q 2988 2256 2988 2297 
Q 2988 2547 2838 2694 
Q 2688 2841 2431 2841 
Q 2103 2841 1873 2661 
Q 1644 2481 1522 2131 
L 2969 2131 
z
" transform="scale(0.015625)"/>
       <path id="DejaVuSans-BoldOblique-70" d="M 1422 506 
L 1063 -1331 
L -63 -1331 
L 878 3500 
L 2003 3500 
L 1900 2988 
Q 2156 3294 2437 3439 
Q 2719 3584 3053 3584 
Q 3644 3584 3987 3209 
Q 4331 2834 4331 2188 
Q 4331 1784 4211 1403 
Q 4091 1022 3866 709 
Q 3581 316 3223 112 
Q 2866 -91 2456 -91 
Q 2097 -91 1845 54 
Q 1594 200 1422 506 
z
M 2597 2772 
Q 2166 2772 1892 2373 
Q 1619 1975 1619 1338 
Q 1619 1050 1773 886 
Q 1928 722 2203 722 
Q 2625 722 2900 1114 
Q 3175 1506 3175 2119 
Q 3175 2438 3026 2605 
Q 2878 2772 2597 2772 
z
" transform="scale(0.015625)"/>
       <path id="DejaVuSans-BoldOblique-74" d="M 2303 4494 
L 2113 3500 
L 3256 3500 
L 3097 2700 
L 1953 2700 
L 1666 1219 
Q 1653 1169 1648 1134 
Q 1644 1100 1644 1069 
Q 1644 925 1739 862 
Q 1834 800 2059 800 
L 2638 800 
L 2478 0 
L 1538 0 
Q 1031 0 765 212 
Q 500 425 500 825 
Q 500 913 509 1013 
Q 519 1113 538 1216 
L 825 2700 
L 275 2700 
L 428 3500 
L 984 3500 
L 1178 4494 
L 2303 4494 
z
" transform="scale(0.015625)"/>
       <path id="DejaVuSans-BoldOblique-69" d="M 878 3500 
L 2003 3500 
L 1319 0 
L 197 0 
L 878 3500 
z
M 1141 4863 
L 2266 4863 
L 2088 3950 
L 959 3950 
L 1141 4863 
z
" transform="scale(0.015625)"/>
       <path id="DejaVuSans-BoldOblique-64" d="M 1966 722 
Q 2397 722 2667 1119 
Q 2938 1516 2938 2156 
Q 2938 2447 2786 2609 
Q 2634 2772 2363 2772 
Q 1938 2772 1663 2380 
Q 1388 1988 1388 1375 
Q 1388 1056 1536 889 
Q 1684 722 1966 722 
z
M 3144 2988 
L 3506 4863 
L 4634 4863 
L 3688 0 
L 2559 0 
L 2663 506 
Q 2406 200 2125 54 
Q 1844 -91 1509 -91 
Q 919 -91 575 284 
Q 231 659 231 1306 
Q 231 1709 351 2090 
Q 472 2472 697 2784 
Q 981 3178 1339 3381 
Q 1697 3584 2106 3584 
Q 2466 3584 2717 3439 
Q 2969 3294 3144 2988 
z
" transform="scale(0.015625)"/>
       <path id="DejaVuSans-BoldOblique-20" transform="scale(0.015625)"/>
       <path id="DejaVuSans-BoldOblique-6c" d="M 1141 4863 
L 2266 4863 
L 1319 0 
L 197 0 
L 1141 4863 
z
" transform="scale(0.015625)"/>
       <path id="DejaVuSans-BoldOblique-6e" d="M 4128 2131 
L 3713 0 
L 2591 0 
L 2944 1825 
Q 2981 2003 3001 2126 
Q 3022 2250 3022 2322 
Q 3022 2522 2911 2631 
Q 2800 2741 2597 2741 
Q 2250 2741 2001 2470 
Q 1753 2200 1656 1722 
L 1319 0 
L 197 0 
L 878 3500 
L 2003 3500 
L 1900 2988 
Q 2209 3291 2521 3437 
Q 2834 3584 3175 3584 
Q 3659 3584 3921 3331 
Q 4184 3078 4184 2619 
Q 4184 2519 4170 2397 
Q 4156 2275 4128 2131 
z
" transform="scale(0.015625)"/>
       <path id="DejaVuSans-BoldOblique-67" d="M 2675 594 
Q 2406 288 2128 144 
Q 1850 0 1522 0 
Q 928 0 583 383 
Q 238 766 238 1428 
Q 238 1781 358 2136 
Q 478 2491 703 2803 
Q 978 3181 1334 3379 
Q 1691 3578 2100 3578 
Q 2469 3578 2720 3434 
Q 2972 3291 3144 2981 
L 3238 3500 
L 4366 3500 
L 3775 459 
Q 3594 -481 3000 -931 
Q 2406 -1381 1350 -1381 
Q 1025 -1381 723 -1331 
Q 422 -1281 128 -1178 
L 294 -306 
Q 559 -475 825 -558 
Q 1091 -641 1369 -641 
Q 1925 -641 2223 -403 
Q 2522 -166 2625 353 
L 2675 594 
z
M 2363 2772 
Q 1950 2772 1676 2400 
Q 1403 2028 1403 1466 
Q 1403 1147 1550 980 
Q 1697 813 1978 813 
Q 2388 813 2663 1183 
Q 2938 1553 2938 2106 
Q 2938 2431 2791 2601 
Q 2644 2772 2363 2772 
z
" transform="scale(0.015625)"/>
       <path id="DejaVuSans-BoldOblique-68" d="M 4128 2131 
L 3713 0 
L 2591 0 
L 2944 1825 
Q 2981 2003 3001 2126 
Q 3022 2250 3022 2322 
Q 3022 2522 2911 2631 
Q 2800 2741 2597 2741 
Q 2250 2741 2001 2470 
Q 1753 2200 1656 1722 
L 1319 0 
L 197 0 
L 1141 4863 
L 2266 4863 
L 1900 2988 
Q 2209 3291 2521 3437 
Q 2834 3584 3175 3584 
Q 3659 3584 3921 3331 
Q 4184 3078 4184 2619 
Q 4184 2519 4170 2397 
Q 4156 2275 4128 2131 
z
" transform="scale(0.015625)"/>
       <path id="DejaVuSans-BoldOblique-28" d="M 1888 -844 
L 978 -844 
Q 734 -325 614 173 
Q 494 672 494 1166 
Q 494 2088 891 3008 
Q 1288 3928 2088 4856 
L 2994 4856 
Q 2266 3888 1908 2939 
Q 1550 1991 1550 1038 
Q 1550 569 1634 101 
Q 1719 -366 1888 -844 
z
" transform="scale(0.015625)"/>
       <path id="DejaVuSans-BoldOblique-61" d="M 2106 1575 
Q 1688 1575 1473 1445 
Q 1259 1316 1259 1063 
Q 1259 872 1386 762 
Q 1513 653 1734 653 
Q 2078 653 2309 861 
Q 2541 1069 2619 1447 
L 2644 1575 
L 2106 1575 
z
M 3853 1997 
L 3463 0 
L 2344 0 
L 2438 519 
Q 2163 206 1856 57 
Q 1550 -91 1191 -91 
Q 694 -91 401 167 
Q 109 425 109 863 
Q 109 1531 626 1886 
Q 1144 2241 2119 2241 
L 2778 2241 
L 2791 2328 
Q 2800 2372 2801 2390 
Q 2803 2409 2803 2425 
Q 2803 2631 2608 2736 
Q 2413 2841 2028 2841 
Q 1681 2841 1356 2769 
Q 1031 2697 728 2553 
L 897 3406 
Q 1247 3494 1614 3539 
Q 1981 3584 2375 3584 
Q 3153 3584 3531 3317 
Q 3909 3050 3909 2503 
Q 3909 2397 3895 2270 
Q 3881 2144 3853 1997 
z
" transform="scale(0.015625)"/>
       <path id="DejaVuSans-BoldOblique-29" d="M 934 4856 
L 1850 4856 
Q 2091 4344 2209 3845 
Q 2328 3347 2328 2847 
Q 2328 1916 1933 995 
Q 1538 75 744 -844 
L -172 -844 
Q 556 125 915 1075 
Q 1275 2025 1275 2981 
Q 1275 3450 1190 3914 
Q 1106 4378 934 4856 
z
" transform="scale(0.015625)"/>
      </defs>
      <use xlink:href="#DejaVuSans-BoldOblique-50"/>
      <use xlink:href="#DejaVuSans-BoldOblique-65" x="70.666016"/>
      <use xlink:href="#DejaVuSans-BoldOblique-70" x="138.488281"/>
      <use xlink:href="#DejaVuSans-BoldOblique-74" x="210.070312"/>
      <use xlink:href="#DejaVuSans-BoldOblique-69" x="257.873047"/>
      <use xlink:href="#DejaVuSans-BoldOblique-64" x="292.150391"/>
      <use xlink:href="#DejaVuSans-BoldOblique-65" x="363.732422"/>
      <use xlink:href="#DejaVuSans-BoldOblique-20" x="431.554688"/>
      <use xlink:href="#DejaVuSans-BoldOblique-6c" x="466.369141"/>
      <use xlink:href="#DejaVuSans-BoldOblique-65" x="500.646484"/>
      <use xlink:href="#DejaVuSans-BoldOblique-6e" x="568.46875"/>
      <use xlink:href="#DejaVuSans-BoldOblique-67" x="639.660156"/>
      <use xlink:href="#DejaVuSans-BoldOblique-74" x="711.242188"/>
      <use xlink:href="#DejaVuSans-BoldOblique-68" x="759.044922"/>
      <use xlink:href="#DejaVuSans-BoldOblique-20" x="830.236328"/>
      <use xlink:href="#DejaVuSans-BoldOblique-28" x="865.050781"/>
      <use xlink:href="#DejaVuSans-BoldOblique-61" x="910.753906"/>
      <use xlink:href="#DejaVuSans-BoldOblique-61" x="978.234375"/>
      <use xlink:href="#DejaVuSans-BoldOblique-29" x="1045.714844"/>
     </g>
    </g>
   </g>
   <g id="matplotlib.axis_2">
    <g id="ytick_1">
     <g id="line2d_6">
      <defs>
       <path id="m90a97cbbde" d="M 0 0 
L -3.5 0 
" style="stroke: #000000; stroke-width: 0.8"/>
      </defs>
      <g>
       <use xlink:href="#m90a97cbbde" x="53.75" y="243.16" style="stroke: #000000; stroke-width: 0.8"/>
      </g>
     </g>
     <g id="text_7">
      <!-- 0 -->
      <g transform="translate(40.3875 246.959219) scale(0.1 -0.1)">
       <use xlink:href="#DejaVuSans-30"/>
      </g>
     </g>
    </g>
    <g id="ytick_2">
     <g id="line2d_7">
      <g>
       <use xlink:href="#m90a97cbbde" x="53.75" y="214.003842" style="stroke: #000000; stroke-width: 0.8"/>
      </g>
     </g>
     <g id="text_8">
      <!-- 100 -->
      <g transform="translate(27.6625 217.803061) scale(0.1 -0.1)">
       <use xlink:href="#DejaVuSans-31"/>
       <use xlink:href="#DejaVuSans-30" x="63.623047"/>
       <use xlink:href="#DejaVuSans-30" x="127.246094"/>
      </g>
     </g>
    </g>
    <g id="ytick_3">
     <g id="line2d_8">
      <g>
       <use xlink:href="#m90a97cbbde" x="53.75" y="184.847684" style="stroke: #000000; stroke-width: 0.8"/>
      </g>
     </g>
     <g id="text_9">
      <!-- 200 -->
      <g transform="translate(27.6625 188.646903) scale(0.1 -0.1)">
       <use xlink:href="#DejaVuSans-32"/>
       <use xlink:href="#DejaVuSans-30" x="63.623047"/>
       <use xlink:href="#DejaVuSans-30" x="127.246094"/>
      </g>
     </g>
    </g>
    <g id="ytick_4">
     <g id="line2d_9">
      <g>
       <use xlink:href="#m90a97cbbde" x="53.75" y="155.691526" style="stroke: #000000; stroke-width: 0.8"/>
      </g>
     </g>
     <g id="text_10">
      <!-- 300 -->
      <g transform="translate(27.6625 159.490745) scale(0.1 -0.1)">
       <use xlink:href="#DejaVuSans-33"/>
       <use xlink:href="#DejaVuSans-30" x="63.623047"/>
       <use xlink:href="#DejaVuSans-30" x="127.246094"/>
      </g>
     </g>
    </g>
    <g id="ytick_5">
     <g id="line2d_10">
      <g>
       <use xlink:href="#m90a97cbbde" x="53.75" y="126.535369" style="stroke: #000000; stroke-width: 0.8"/>
      </g>
     </g>
     <g id="text_11">
      <!-- 400 -->
      <g transform="translate(27.6625 130.334587) scale(0.1 -0.1)">
       <use xlink:href="#DejaVuSans-34"/>
       <use xlink:href="#DejaVuSans-30" x="63.623047"/>
       <use xlink:href="#DejaVuSans-30" x="127.246094"/>
      </g>
     </g>
    </g>
    <g id="ytick_6">
     <g id="line2d_11">
      <g>
       <use xlink:href="#m90a97cbbde" x="53.75" y="97.379211" style="stroke: #000000; stroke-width: 0.8"/>
      </g>
     </g>
     <g id="text_12">
      <!-- 500 -->
      <g transform="translate(27.6625 101.178429) scale(0.1 -0.1)">
       <use xlink:href="#DejaVuSans-35"/>
       <use xlink:href="#DejaVuSans-30" x="63.623047"/>
       <use xlink:href="#DejaVuSans-30" x="127.246094"/>
      </g>
     </g>
    </g>
    <g id="ytick_7">
     <g id="line2d_12">
      <g>
       <use xlink:href="#m90a97cbbde" x="53.75" y="68.223053" style="stroke: #000000; stroke-width: 0.8"/>
      </g>
     </g>
     <g id="text_13">
      <!-- 600 -->
      <g transform="translate(27.6625 72.022272) scale(0.1 -0.1)">
       <defs>
        <path id="DejaVuSans-36" d="M 2113 2584 
Q 1688 2584 1439 2293 
Q 1191 2003 1191 1497 
Q 1191 994 1439 701 
Q 1688 409 2113 409 
Q 2538 409 2786 701 
Q 3034 994 3034 1497 
Q 3034 2003 2786 2293 
Q 2538 2584 2113 2584 
z
M 3366 4563 
L 3366 3988 
Q 3128 4100 2886 4159 
Q 2644 4219 2406 4219 
Q 1781 4219 1451 3797 
Q 1122 3375 1075 2522 
Q 1259 2794 1537 2939 
Q 1816 3084 2150 3084 
Q 2853 3084 3261 2657 
Q 3669 2231 3669 1497 
Q 3669 778 3244 343 
Q 2819 -91 2113 -91 
Q 1303 -91 875 529 
Q 447 1150 447 2328 
Q 447 3434 972 4092 
Q 1497 4750 2381 4750 
Q 2619 4750 2861 4703 
Q 3103 4656 3366 4563 
z
" transform="scale(0.015625)"/>
       </defs>
       <use xlink:href="#DejaVuSans-36"/>
       <use xlink:href="#DejaVuSans-30" x="63.623047"/>
       <use xlink:href="#DejaVuSans-30" x="127.246094"/>
      </g>
     </g>
    </g>
    <g id="ytick_8">
     <g id="line2d_13">
      <g>
       <use xlink:href="#m90a97cbbde" x="53.75" y="39.066895" style="stroke: #000000; stroke-width: 0.8"/>
      </g>
     </g>
     <g id="text_14">
      <!-- 700 -->
      <g transform="translate(27.6625 42.866114) scale(0.1 -0.1)">
       <defs>
        <path id="DejaVuSans-37" d="M 525 4666 
L 3525 4666 
L 3525 4397 
L 1831 0 
L 1172 0 
L 2766 4134 
L 525 4134 
L 525 4666 
z
" transform="scale(0.015625)"/>
       </defs>
       <use xlink:href="#DejaVuSans-37"/>
       <use xlink:href="#DejaVuSans-30" x="63.623047"/>
       <use xlink:href="#DejaVuSans-30" x="127.246094"/>
      </g>
     </g>
    </g>
    <g id="text_15">
     <!-- Count -->
     <g transform="translate(21.166875 146.915938) rotate(-90) scale(0.12 -0.12)">
      <defs>
       <path id="DejaVuSans-BoldOblique-43" d="M 3878 219 
Q 3447 66 3050 -12 
Q 2653 -91 2297 -91 
Q 1356 -91 793 425 
Q 231 941 231 1791 
Q 231 2350 409 2845 
Q 588 3341 934 3750 
Q 1344 4231 1920 4490 
Q 2497 4750 3163 4750 
Q 3525 4750 3890 4664 
Q 4256 4578 4634 4403 
L 4441 3438 
Q 4141 3666 3837 3772 
Q 3534 3878 3188 3878 
Q 2466 3878 1978 3322 
Q 1491 2766 1491 1931 
Q 1491 1394 1791 1087 
Q 2091 781 2619 781 
Q 2934 781 3289 895 
Q 3644 1009 4084 1253 
L 3878 219 
z
" transform="scale(0.015625)"/>
       <path id="DejaVuSans-BoldOblique-6f" d="M 2400 2784 
Q 1966 2784 1684 2390 
Q 1403 1997 1403 1388 
Q 1403 1056 1554 882 
Q 1706 709 1997 709 
Q 2431 709 2712 1104 
Q 2994 1500 2994 2113 
Q 2994 2441 2842 2612 
Q 2691 2784 2400 2784 
z
M 2491 3584 
Q 3272 3584 3719 3187 
Q 4166 2791 4166 2106 
Q 4166 1709 4025 1336 
Q 3884 963 3616 653 
Q 3297 284 2862 96 
Q 2428 -91 1894 -91 
Q 1122 -91 676 306 
Q 231 703 231 1388 
Q 231 1781 375 2157 
Q 519 2534 788 2847 
Q 1100 3209 1533 3396 
Q 1966 3584 2491 3584 
z
" transform="scale(0.015625)"/>
       <path id="DejaVuSans-BoldOblique-75" d="M 434 1363 
L 844 3500 
L 1966 3500 
L 1613 1678 
Q 1575 1500 1556 1375 
Q 1538 1250 1538 1178 
Q 1538 981 1647 872 
Q 1756 763 1959 763 
Q 2306 763 2556 1031 
Q 2806 1300 2900 1778 
L 3238 3500 
L 4359 3500 
L 3681 0 
L 2553 0 
L 2656 513 
Q 2369 209 2053 59 
Q 1738 -91 1388 -91 
Q 909 -91 646 162 
Q 384 416 384 878 
Q 384 988 396 1109 
Q 409 1231 434 1363 
z
" transform="scale(0.015625)"/>
      </defs>
      <use xlink:href="#DejaVuSans-BoldOblique-43"/>
      <use xlink:href="#DejaVuSans-BoldOblique-6f" x="73.388672"/>
      <use xlink:href="#DejaVuSans-BoldOblique-75" x="142.089844"/>
      <use xlink:href="#DejaVuSans-BoldOblique-6e" x="213.28125"/>
      <use xlink:href="#DejaVuSans-BoldOblique-74" x="284.472656"/>
     </g>
    </g>
   </g>
   <g id="line2d_14">
    <path d="M 70.452273 243.16 
L 70.452273 10.8 
" clip-path="url(#p2fced6aa8e)" style="fill: none; stroke-dasharray: 1.5,2.475; stroke-dashoffset: 0; stroke: #2025c1; stroke-width: 1.5"/>
   </g>
   <g id="line2d_15">
    <path d="M 371.093182 243.16 
L 371.093182 10.8 
" clip-path="url(#p2fced6aa8e)" style="fill: none; stroke-dasharray: 1.5,2.475; stroke-dashoffset: 0; stroke: #c22626; stroke-width: 1.5"/>
   </g>
   <g id="patch_53">
    <path d="M 53.75 243.16 
L 53.75 10.8 
" style="fill: none; stroke: #000000; stroke-width: 0.8; stroke-linejoin: miter; stroke-linecap: square"/>
   </g>
   <g id="patch_54">
    <path d="M 421.2 243.16 
L 421.2 10.8 
" style="fill: none; stroke: #000000; stroke-width: 0.8; stroke-linejoin: miter; stroke-linecap: square"/>
   </g>
   <g id="patch_55">
    <path d="M 53.75 243.16 
L 421.2 243.16 
" style="fill: none; stroke: #000000; stroke-width: 0.8; stroke-linejoin: miter; stroke-linecap: square"/>
   </g>
   <g id="patch_56">
    <path d="M 53.75 10.8 
L 421.2 10.8 
" style="fill: none; stroke: #000000; stroke-width: 0.8; stroke-linejoin: miter; stroke-linecap: square"/>
   </g>
   <g id="text_16">
    <!-- 5 aa -->
    <g transform="translate(68.372585 44.214875) rotate(-90) scale(0.1 -0.1)">
     <defs>
      <path id="DejaVuSans-20" transform="scale(0.015625)"/>
      <path id="DejaVuSans-61" d="M 2194 1759 
Q 1497 1759 1228 1600 
Q 959 1441 959 1056 
Q 959 750 1161 570 
Q 1363 391 1709 391 
Q 2188 391 2477 730 
Q 2766 1069 2766 1631 
L 2766 1759 
L 2194 1759 
z
M 3341 1997 
L 3341 0 
L 2766 0 
L 2766 531 
Q 2569 213 2275 61 
Q 1981 -91 1556 -91 
Q 1019 -91 701 211 
Q 384 513 384 1019 
Q 384 1609 779 1909 
Q 1175 2209 1959 2209 
L 2766 2209 
L 2766 2266 
Q 2766 2663 2505 2880 
Q 2244 3097 1772 3097 
Q 1472 3097 1187 3025 
Q 903 2953 641 2809 
L 641 3341 
Q 956 3463 1253 3523 
Q 1550 3584 1831 3584 
Q 2591 3584 2966 3190 
Q 3341 2797 3341 1997 
z
" transform="scale(0.015625)"/>
     </defs>
     <use xlink:href="#DejaVuSans-35"/>
     <use xlink:href="#DejaVuSans-20" x="63.623047"/>
     <use xlink:href="#DejaVuSans-61" x="95.410156"/>
     <use xlink:href="#DejaVuSans-61" x="156.689453"/>
    </g>
   </g>
   <g id="text_17">
    <!-- 50 aa -->
    <g transform="translate(369.013494 50.577375) rotate(-90) scale(0.1 -0.1)">
     <use xlink:href="#DejaVuSans-35"/>
     <use xlink:href="#DejaVuSans-30" x="63.623047"/>
     <use xlink:href="#DejaVuSans-20" x="127.246094"/>
     <use xlink:href="#DejaVuSans-61" x="159.033203"/>
     <use xlink:href="#DejaVuSans-61" x="220.3125"/>
    </g>
   </g>
  </g>
  <g id="text_18">
   <g id="patch_57">
    <path d="M 280.8 91.479688 
L 401.429688 91.479688 
Q 404.429688 91.479688 404.429688 88.479688 
L 404.429688 11.614688 
Q 404.429688 8.614688 401.429688 8.614688 
L 280.8 8.614688 
Q 277.8 8.614688 277.8 11.614688 
L 277.8 88.479688 
Q 277.8 91.479688 280.8 91.479688 
L 280.8 91.479688 
z
" style="fill: none; stroke: #000000; stroke-width: 0.8; stroke-linejoin: miter"/>
   </g>
   <!-- Mean length: 16.8 aa -->
   <g transform="translate(280.8 19.213125) scale(0.1 -0.1)">
    <defs>
     <path id="DejaVuSans-4d" d="M 628 4666 
L 1569 4666 
L 2759 1491 
L 3956 4666 
L 4897 4666 
L 4897 0 
L 4281 0 
L 4281 4097 
L 3078 897 
L 2444 897 
L 1241 4097 
L 1241 0 
L 628 0 
L 628 4666 
z
" transform="scale(0.015625)"/>
     <path id="DejaVuSans-65" d="M 3597 1894 
L 3597 1613 
L 953 1613 
Q 991 1019 1311 708 
Q 1631 397 2203 397 
Q 2534 397 2845 478 
Q 3156 559 3463 722 
L 3463 178 
Q 3153 47 2828 -22 
Q 2503 -91 2169 -91 
Q 1331 -91 842 396 
Q 353 884 353 1716 
Q 353 2575 817 3079 
Q 1281 3584 2069 3584 
Q 2775 3584 3186 3129 
Q 3597 2675 3597 1894 
z
M 3022 2063 
Q 3016 2534 2758 2815 
Q 2500 3097 2075 3097 
Q 1594 3097 1305 2825 
Q 1016 2553 972 2059 
L 3022 2063 
z
" transform="scale(0.015625)"/>
     <path id="DejaVuSans-6e" d="M 3513 2113 
L 3513 0 
L 2938 0 
L 2938 2094 
Q 2938 2591 2744 2837 
Q 2550 3084 2163 3084 
Q 1697 3084 1428 2787 
Q 1159 2491 1159 1978 
L 1159 0 
L 581 0 
L 581 3500 
L 1159 3500 
L 1159 2956 
Q 1366 3272 1645 3428 
Q 1925 3584 2291 3584 
Q 2894 3584 3203 3211 
Q 3513 2838 3513 2113 
z
" transform="scale(0.015625)"/>
     <path id="DejaVuSans-6c" d="M 603 4863 
L 1178 4863 
L 1178 0 
L 603 0 
L 603 4863 
z
" transform="scale(0.015625)"/>
     <path id="DejaVuSans-67" d="M 2906 1791 
Q 2906 2416 2648 2759 
Q 2391 3103 1925 3103 
Q 1463 3103 1205 2759 
Q 947 2416 947 1791 
Q 947 1169 1205 825 
Q 1463 481 1925 481 
Q 2391 481 2648 825 
Q 2906 1169 2906 1791 
z
M 3481 434 
Q 3481 -459 3084 -895 
Q 2688 -1331 1869 -1331 
Q 1566 -1331 1297 -1286 
Q 1028 -1241 775 -1147 
L 775 -588 
Q 1028 -725 1275 -790 
Q 1522 -856 1778 -856 
Q 2344 -856 2625 -561 
Q 2906 -266 2906 331 
L 2906 616 
Q 2728 306 2450 153 
Q 2172 0 1784 0 
Q 1141 0 747 490 
Q 353 981 353 1791 
Q 353 2603 747 3093 
Q 1141 3584 1784 3584 
Q 2172 3584 2450 3431 
Q 2728 3278 2906 2969 
L 2906 3500 
L 3481 3500 
L 3481 434 
z
" transform="scale(0.015625)"/>
     <path id="DejaVuSans-74" d="M 1172 4494 
L 1172 3500 
L 2356 3500 
L 2356 3053 
L 1172 3053 
L 1172 1153 
Q 1172 725 1289 603 
Q 1406 481 1766 481 
L 2356 481 
L 2356 0 
L 1766 0 
Q 1100 0 847 248 
Q 594 497 594 1153 
L 594 3053 
L 172 3053 
L 172 3500 
L 594 3500 
L 594 4494 
L 1172 4494 
z
" transform="scale(0.015625)"/>
     <path id="DejaVuSans-68" d="M 3513 2113 
L 3513 0 
L 2938 0 
L 2938 2094 
Q 2938 2591 2744 2837 
Q 2550 3084 2163 3084 
Q 1697 3084 1428 2787 
Q 1159 2491 1159 1978 
L 1159 0 
L 581 0 
L 581 4863 
L 1159 4863 
L 1159 2956 
Q 1366 3272 1645 3428 
Q 1925 3584 2291 3584 
Q 2894 3584 3203 3211 
Q 3513 2838 3513 2113 
z
" transform="scale(0.015625)"/>
     <path id="DejaVuSans-3a" d="M 750 794 
L 1409 794 
L 1409 0 
L 750 0 
L 750 794 
z
M 750 3309 
L 1409 3309 
L 1409 2516 
L 750 2516 
L 750 3309 
z
" transform="scale(0.015625)"/>
     <path id="DejaVuSans-2e" d="M 684 794 
L 1344 794 
L 1344 0 
L 684 0 
L 684 794 
z
" transform="scale(0.015625)"/>
     <path id="DejaVuSans-38" d="M 2034 2216 
Q 1584 2216 1326 1975 
Q 1069 1734 1069 1313 
Q 1069 891 1326 650 
Q 1584 409 2034 409 
Q 2484 409 2743 651 
Q 3003 894 3003 1313 
Q 3003 1734 2745 1975 
Q 2488 2216 2034 2216 
z
M 1403 2484 
Q 997 2584 770 2862 
Q 544 3141 544 3541 
Q 544 4100 942 4425 
Q 1341 4750 2034 4750 
Q 2731 4750 3128 4425 
Q 3525 4100 3525 3541 
Q 3525 3141 3298 2862 
Q 3072 2584 2669 2484 
Q 3125 2378 3379 2068 
Q 3634 1759 3634 1313 
Q 3634 634 3220 271 
Q 2806 -91 2034 -91 
Q 1263 -91 848 271 
Q 434 634 434 1313 
Q 434 1759 690 2068 
Q 947 2378 1403 2484 
z
M 1172 3481 
Q 1172 3119 1398 2916 
Q 1625 2713 2034 2713 
Q 2441 2713 2670 2916 
Q 2900 3119 2900 3481 
Q 2900 3844 2670 4047 
Q 2441 4250 2034 4250 
Q 1625 4250 1398 4047 
Q 1172 3844 1172 3481 
z
" transform="scale(0.015625)"/>
    </defs>
    <use xlink:href="#DejaVuSans-4d"/>
    <use xlink:href="#DejaVuSans-65" x="86.279297"/>
    <use xlink:href="#DejaVuSans-61" x="147.802734"/>
    <use xlink:href="#DejaVuSans-6e" x="209.082031"/>
    <use xlink:href="#DejaVuSans-20" x="272.460938"/>
    <use xlink:href="#DejaVuSans-6c" x="304.248047"/>
    <use xlink:href="#DejaVuSans-65" x="332.03125"/>
    <use xlink:href="#DejaVuSans-6e" x="393.554688"/>
    <use xlink:href="#DejaVuSans-67" x="456.933594"/>
    <use xlink:href="#DejaVuSans-74" x="520.410156"/>
    <use xlink:href="#DejaVuSans-68" x="559.619141"/>
    <use xlink:href="#DejaVuSans-3a" x="622.998047"/>
    <use xlink:href="#DejaVuSans-20" x="656.689453"/>
    <use xlink:href="#DejaVuSans-31" x="688.476562"/>
    <use xlink:href="#DejaVuSans-36" x="752.099609"/>
    <use xlink:href="#DejaVuSans-2e" x="815.722656"/>
    <use xlink:href="#DejaVuSans-38" x="847.509766"/>
    <use xlink:href="#DejaVuSans-20" x="911.132812"/>
    <use xlink:href="#DejaVuSans-61" x="942.919922"/>
    <use xlink:href="#DejaVuSans-61" x="1004.199219"/>
   </g>
   <!-- Median length: 15.0 aa -->
   <g transform="translate(280.8 30.410937) scale(0.1 -0.1)">
    <defs>
     <path id="DejaVuSans-64" d="M 2906 2969 
L 2906 4863 
L 3481 4863 
L 3481 0 
L 2906 0 
L 2906 525 
Q 2725 213 2448 61 
Q 2172 -91 1784 -91 
Q 1150 -91 751 415 
Q 353 922 353 1747 
Q 353 2572 751 3078 
Q 1150 3584 1784 3584 
Q 2172 3584 2448 3432 
Q 2725 3281 2906 2969 
z
M 947 1747 
Q 947 1113 1208 752 
Q 1469 391 1925 391 
Q 2381 391 2643 752 
Q 2906 1113 2906 1747 
Q 2906 2381 2643 2742 
Q 2381 3103 1925 3103 
Q 1469 3103 1208 2742 
Q 947 2381 947 1747 
z
" transform="scale(0.015625)"/>
     <path id="DejaVuSans-69" d="M 603 3500 
L 1178 3500 
L 1178 0 
L 603 0 
L 603 3500 
z
M 603 4863 
L 1178 4863 
L 1178 4134 
L 603 4134 
L 603 4863 
z
" transform="scale(0.015625)"/>
    </defs>
    <use xlink:href="#DejaVuSans-4d"/>
    <use xlink:href="#DejaVuSans-65" x="86.279297"/>
    <use xlink:href="#DejaVuSans-64" x="147.802734"/>
    <use xlink:href="#DejaVuSans-69" x="211.279297"/>
    <use xlink:href="#DejaVuSans-61" x="239.0625"/>
    <use xlink:href="#DejaVuSans-6e" x="300.341797"/>
    <use xlink:href="#DejaVuSans-20" x="363.720703"/>
    <use xlink:href="#DejaVuSans-6c" x="395.507812"/>
    <use xlink:href="#DejaVuSans-65" x="423.291016"/>
    <use xlink:href="#DejaVuSans-6e" x="484.814453"/>
    <use xlink:href="#DejaVuSans-67" x="548.193359"/>
    <use xlink:href="#DejaVuSans-74" x="611.669922"/>
    <use xlink:href="#DejaVuSans-68" x="650.878906"/>
    <use xlink:href="#DejaVuSans-3a" x="714.257812"/>
    <use xlink:href="#DejaVuSans-20" x="747.949219"/>
    <use xlink:href="#DejaVuSans-31" x="779.736328"/>
    <use xlink:href="#DejaVuSans-35" x="843.359375"/>
    <use xlink:href="#DejaVuSans-2e" x="906.982422"/>
    <use xlink:href="#DejaVuSans-30" x="938.769531"/>
    <use xlink:href="#DejaVuSans-20" x="1002.392578"/>
    <use xlink:href="#DejaVuSans-61" x="1034.179688"/>
    <use xlink:href="#DejaVuSans-61" x="1095.458984"/>
   </g>
   <!-- &lt; 5 aa:  0 ( 0.0%) -->
   <g transform="translate(280.8 41.60875) scale(0.1 -0.1)">
    <defs>
     <path id="DejaVuSans-3c" d="M 4684 3150 
L 1459 2003 
L 4684 863 
L 4684 294 
L 678 1747 
L 678 2266 
L 4684 3719 
L 4684 3150 
z
" transform="scale(0.015625)"/>
     <path id="DejaVuSans-28" d="M 1984 4856 
Q 1566 4138 1362 3434 
Q 1159 2731 1159 2009 
Q 1159 1288 1364 580 
Q 1569 -128 1984 -844 
L 1484 -844 
Q 1016 -109 783 600 
Q 550 1309 550 2009 
Q 550 2706 781 3412 
Q 1013 4119 1484 4856 
L 1984 4856 
z
" transform="scale(0.015625)"/>
     <path id="DejaVuSans-25" d="M 4653 2053 
Q 4381 2053 4226 1822 
Q 4072 1591 4072 1178 
Q 4072 772 4226 539 
Q 4381 306 4653 306 
Q 4919 306 5073 539 
Q 5228 772 5228 1178 
Q 5228 1588 5073 1820 
Q 4919 2053 4653 2053 
z
M 4653 2450 
Q 5147 2450 5437 2106 
Q 5728 1763 5728 1178 
Q 5728 594 5436 251 
Q 5144 -91 4653 -91 
Q 4153 -91 3862 251 
Q 3572 594 3572 1178 
Q 3572 1766 3864 2108 
Q 4156 2450 4653 2450 
z
M 1428 4353 
Q 1159 4353 1004 4120 
Q 850 3888 850 3481 
Q 850 3069 1003 2837 
Q 1156 2606 1428 2606 
Q 1700 2606 1854 2837 
Q 2009 3069 2009 3481 
Q 2009 3884 1853 4118 
Q 1697 4353 1428 4353 
z
M 4250 4750 
L 4750 4750 
L 1831 -91 
L 1331 -91 
L 4250 4750 
z
M 1428 4750 
Q 1922 4750 2215 4408 
Q 2509 4066 2509 3481 
Q 2509 2891 2217 2550 
Q 1925 2209 1428 2209 
Q 931 2209 642 2551 
Q 353 2894 353 3481 
Q 353 4063 643 4406 
Q 934 4750 1428 4750 
z
" transform="scale(0.015625)"/>
     <path id="DejaVuSans-29" d="M 513 4856 
L 1013 4856 
Q 1481 4119 1714 3412 
Q 1947 2706 1947 2009 
Q 1947 1309 1714 600 
Q 1481 -109 1013 -844 
L 513 -844 
Q 928 -128 1133 580 
Q 1338 1288 1338 2009 
Q 1338 2731 1133 3434 
Q 928 4138 513 4856 
z
" transform="scale(0.015625)"/>
    </defs>
    <use xlink:href="#DejaVuSans-3c"/>
    <use xlink:href="#DejaVuSans-20" x="83.789062"/>
    <use xlink:href="#DejaVuSans-35" x="115.576172"/>
    <use xlink:href="#DejaVuSans-20" x="179.199219"/>
    <use xlink:href="#DejaVuSans-61" x="210.986328"/>
    <use xlink:href="#DejaVuSans-61" x="272.265625"/>
    <use xlink:href="#DejaVuSans-3a" x="333.544922"/>
    <use xlink:href="#DejaVuSans-20" x="367.236328"/>
    <use xlink:href="#DejaVuSans-20" x="399.023438"/>
    <use xlink:href="#DejaVuSans-30" x="430.810547"/>
    <use xlink:href="#DejaVuSans-20" x="494.433594"/>
    <use xlink:href="#DejaVuSans-28" x="526.220703"/>
    <use xlink:href="#DejaVuSans-20" x="565.234375"/>
    <use xlink:href="#DejaVuSans-30" x="597.021484"/>
    <use xlink:href="#DejaVuSans-2e" x="660.644531"/>
    <use xlink:href="#DejaVuSans-30" x="692.431641"/>
    <use xlink:href="#DejaVuSans-25" x="756.054688"/>
    <use xlink:href="#DejaVuSans-29" x="851.074219"/>
   </g>
   <!-- 5–10 aa: 207 ( 8.7%) -->
   <g transform="translate(280.8 52.806562) scale(0.1 -0.1)">
    <defs>
     <path id="DejaVuSans-2013" d="M 313 1978 
L 2888 1978 
L 2888 1528 
L 313 1528 
L 313 1978 
z
" transform="scale(0.015625)"/>
    </defs>
    <use xlink:href="#DejaVuSans-35"/>
    <use xlink:href="#DejaVuSans-2013" x="63.623047"/>
    <use xlink:href="#DejaVuSans-31" x="113.623047"/>
    <use xlink:href="#DejaVuSans-30" x="177.246094"/>
    <use xlink:href="#DejaVuSans-20" x="240.869141"/>
    <use xlink:href="#DejaVuSans-61" x="272.65625"/>
    <use xlink:href="#DejaVuSans-61" x="333.935547"/>
    <use xlink:href="#DejaVuSans-3a" x="395.214844"/>
    <use xlink:href="#DejaVuSans-20" x="428.90625"/>
    <use xlink:href="#DejaVuSans-32" x="460.693359"/>
    <use xlink:href="#DejaVuSans-30" x="524.316406"/>
    <use xlink:href="#DejaVuSans-37" x="587.939453"/>
    <use xlink:href="#DejaVuSans-20" x="651.5625"/>
    <use xlink:href="#DejaVuSans-28" x="683.349609"/>
    <use xlink:href="#DejaVuSans-20" x="722.363281"/>
    <use xlink:href="#DejaVuSans-38" x="754.150391"/>
    <use xlink:href="#DejaVuSans-2e" x="817.773438"/>
    <use xlink:href="#DejaVuSans-37" x="849.560547"/>
    <use xlink:href="#DejaVuSans-25" x="913.183594"/>
    <use xlink:href="#DejaVuSans-29" x="1008.203125"/>
   </g>
   <!-- 11–25 aa: 2065 (87.0%) -->
   <g transform="translate(280.8 64.004375) scale(0.1 -0.1)">
    <use xlink:href="#DejaVuSans-31"/>
    <use xlink:href="#DejaVuSans-31" x="63.623047"/>
    <use xlink:href="#DejaVuSans-2013" x="127.246094"/>
    <use xlink:href="#DejaVuSans-32" x="177.246094"/>
    <use xlink:href="#DejaVuSans-35" x="240.869141"/>
    <use xlink:href="#DejaVuSans-20" x="304.492188"/>
    <use xlink:href="#DejaVuSans-61" x="336.279297"/>
    <use xlink:href="#DejaVuSans-61" x="397.558594"/>
    <use xlink:href="#DejaVuSans-3a" x="458.837891"/>
    <use xlink:href="#DejaVuSans-20" x="492.529297"/>
    <use xlink:href="#DejaVuSans-32" x="524.316406"/>
    <use xlink:href="#DejaVuSans-30" x="587.939453"/>
    <use xlink:href="#DejaVuSans-36" x="651.5625"/>
    <use xlink:href="#DejaVuSans-35" x="715.185547"/>
    <use xlink:href="#DejaVuSans-20" x="778.808594"/>
    <use xlink:href="#DejaVuSans-28" x="810.595703"/>
    <use xlink:href="#DejaVuSans-38" x="849.609375"/>
    <use xlink:href="#DejaVuSans-37" x="913.232422"/>
    <use xlink:href="#DejaVuSans-2e" x="976.855469"/>
    <use xlink:href="#DejaVuSans-30" x="1008.642578"/>
    <use xlink:href="#DejaVuSans-25" x="1072.265625"/>
    <use xlink:href="#DejaVuSans-29" x="1167.285156"/>
   </g>
   <!-- 26–50 aa: 100 ( 4.2%) -->
   <g transform="translate(280.8 75.202187) scale(0.1 -0.1)">
    <use xlink:href="#DejaVuSans-32"/>
    <use xlink:href="#DejaVuSans-36" x="63.623047"/>
    <use xlink:href="#DejaVuSans-2013" x="127.246094"/>
    <use xlink:href="#DejaVuSans-35" x="177.246094"/>
    <use xlink:href="#DejaVuSans-30" x="240.869141"/>
    <use xlink:href="#DejaVuSans-20" x="304.492188"/>
    <use xlink:href="#DejaVuSans-61" x="336.279297"/>
    <use xlink:href="#DejaVuSans-61" x="397.558594"/>
    <use xlink:href="#DejaVuSans-3a" x="458.837891"/>
    <use xlink:href="#DejaVuSans-20" x="492.529297"/>
    <use xlink:href="#DejaVuSans-31" x="524.316406"/>
    <use xlink:href="#DejaVuSans-30" x="587.939453"/>
    <use xlink:href="#DejaVuSans-30" x="651.5625"/>
    <use xlink:href="#DejaVuSans-20" x="715.185547"/>
    <use xlink:href="#DejaVuSans-28" x="746.972656"/>
    <use xlink:href="#DejaVuSans-20" x="785.986328"/>
    <use xlink:href="#DejaVuSans-34" x="817.773438"/>
    <use xlink:href="#DejaVuSans-2e" x="881.396484"/>
    <use xlink:href="#DejaVuSans-32" x="913.183594"/>
    <use xlink:href="#DejaVuSans-25" x="976.806641"/>
    <use xlink:href="#DejaVuSans-29" x="1071.826172"/>
   </g>
   <!-- &gt; 50 aa: 1 ( 0.0%) -->
   <g transform="translate(280.8 86.4) scale(0.1 -0.1)">
    <defs>
     <path id="DejaVuSans-3e" d="M 678 3150 
L 678 3719 
L 4684 2266 
L 4684 1747 
L 678 294 
L 678 863 
L 3897 2003 
L 678 3150 
z
" transform="scale(0.015625)"/>
    </defs>
    <use xlink:href="#DejaVuSans-3e"/>
    <use xlink:href="#DejaVuSans-20" x="83.789062"/>
    <use xlink:href="#DejaVuSans-35" x="115.576172"/>
    <use xlink:href="#DejaVuSans-30" x="179.199219"/>
    <use xlink:href="#DejaVuSans-20" x="242.822266"/>
    <use xlink:href="#DejaVuSans-61" x="274.609375"/>
    <use xlink:href="#DejaVuSans-61" x="335.888672"/>
    <use xlink:href="#DejaVuSans-3a" x="397.167969"/>
    <use xlink:href="#DejaVuSans-20" x="430.859375"/>
    <use xlink:href="#DejaVuSans-31" x="462.646484"/>
    <use xlink:href="#DejaVuSans-20" x="526.269531"/>
    <use xlink:href="#DejaVuSans-28" x="558.056641"/>
    <use xlink:href="#DejaVuSans-20" x="597.070312"/>
    <use xlink:href="#DejaVuSans-30" x="628.857422"/>
    <use xlink:href="#DejaVuSans-2e" x="692.480469"/>
    <use xlink:href="#DejaVuSans-30" x="724.267578"/>
    <use xlink:href="#DejaVuSans-25" x="787.890625"/>
    <use xlink:href="#DejaVuSans-29" x="882.910156"/>
   </g>
  </g>
 </g>
 <defs>
  <clipPath id="p2fced6aa8e">
   <rect x="53.75" y="10.8" width="367.45" height="232.36"/>
  </clipPath>
 </defs>
</svg>
